<?xml version="1.0" encoding="UTF-8" standalone="no"?>
<svg width="40px" height="40px" viewBox="0 0 40 40" version="1.1" xmlns="http://www.w3.org/2000/svg" xmlns:xlink="http://www.w3.org/1999/xlink" xmlns:sketch="http://www.bohemiancoding.com/sketch/ns">
    <!-- Generator: Sketch 3.4.2 (15855) - http://www.bohemiancoding.com/sketch -->
    <title>ic_card_american_express</title>
    <desc>Created with Sketch.</desc>
    <defs>
        <radialGradient cx="17.5380818%" cy="17.4735336%" fx="17.5380818%" fy="17.4735336%" r="93.2921368%" id="radialGradient-1">
            <stop stop-color="#9DD5F6" offset="0%"></stop>
            <stop stop-color="#98D3F5" offset="7.11%"></stop>
            <stop stop-color="#89CEF3" offset="15.75%"></stop>
            <stop stop-color="#70C6EF" offset="25.16%"></stop>
            <stop stop-color="#4EBBEA" offset="35.14%"></stop>
            <stop stop-color="#23ADE3" offset="45.46%"></stop>
            <stop stop-color="#0DA6E0" offset="50%"></stop>
            <stop stop-color="#2E77BC" offset="100%"></stop>
        </radialGradient>
    </defs>
    <g id="New-Assets" stroke="none" stroke-width="1" fill="none" fill-rule="evenodd" sketch:type="MSPage">
        <g id="ic_card_american_express" sketch:type="MSLayerGroup">
            <rect id="Rectangle-59" sketch:type="MSShapeGroup" x="0" y="0" width="40" height="40"></rect>
            <g id="Shape-+-Shape-+-Shape" transform="translate(3.333333, 3.333333)" sketch:type="MSShapeGroup">
                <path d="M33.0526316,0 L0.081871345,0 L0.081871345,33.3333333 L33.0526316,33.3333333 L33.0526316,22.3321555 C33.1812865,22.1436985 33.251462,21.8963486 33.251462,21.6018846 C33.251462,21.2603062 33.1812865,21.0482921 33.0526316,20.8716137" id="Shape" fill="url(#radialGradient-1)"></path>
                <path d="M3.05263158,14.4287397 L2.42105263,12.8739694 L1.78947368,14.4287397 L3.05263158,14.4287397 Z M17.0292398,13.8044759 C16.9005848,13.8869258 16.748538,13.8869258 16.5730994,13.8869258 L15.4385965,13.8869258 L15.4385965,13.0153121 L16.5847953,13.0153121 C16.748538,13.0153121 16.9122807,13.0270907 17.0292398,13.0859835 C17.1461988,13.1448763 17.2280702,13.262662 17.2280702,13.4275618 C17.2163743,13.6042403 17.1461988,13.745583 17.0292398,13.8044759 L17.0292398,13.8044759 Z M25.0643275,14.4287397 L24.4210526,12.8739694 L23.7777778,14.4287397 L25.0643275,14.4287397 L25.0643275,14.4287397 Z M10.0935673,16.1130742 L9.14619883,16.1130742 L9.14619883,13.0506478 L7.80116959,16.1130742 L6.98245614,16.1130742 L5.6374269,13.0506478 L5.6374269,16.1130742 L3.74269006,16.1130742 L3.39181287,15.2414605 L1.4619883,15.2414605 L1.0994152,16.1130742 L0.0935672515,16.1130742 L1.75438596,12.2025913 L3.13450292,12.2025913 L4.71345029,15.9010601 L4.71345029,12.2025913 L6.22222222,12.2025913 L7.43859649,14.852768 L8.5497076,12.2025913 L10.0935673,12.2025913 L10.0935673,16.1130742 L10.0935673,16.1130742 L10.0935673,16.1130742 Z M13.871345,16.1130742 L10.7719298,16.1130742 L10.7719298,12.2025913 L13.871345,12.2025913 L13.871345,13.0153121 L11.7076023,13.0153121 L11.7076023,13.7220259 L13.8245614,13.7220259 L13.8245614,14.5229682 L11.7076023,14.5229682 L11.7076023,15.3003534 L13.871345,15.3003534 L13.871345,16.1130742 L13.871345,16.1130742 Z M18.245614,13.2508834 C18.245614,13.8751472 17.8362573,14.1931684 17.5906433,14.2873969 C17.7894737,14.3698469 17.9649123,14.4994111 18.0467836,14.6171967 C18.1754386,14.8056537 18.1988304,14.9823322 18.1988304,15.335689 L18.1988304,16.1012956 L17.2631579,16.1012956 L17.2631579,15.606596 C17.2631579,15.3710247 17.2865497,15.0294464 17.1111111,14.8409894 C16.9707602,14.6996466 16.7719298,14.6760895 16.4327485,14.6760895 L15.4385965,14.6760895 L15.4385965,16.1012956 L14.5146199,16.1012956 L14.5146199,12.1908127 L16.6432749,12.1908127 C17.1111111,12.1908127 17.4619883,12.2025913 17.7660819,12.3792697 C18.0701754,12.5677267 18.245614,12.8150766 18.245614,13.2508834 L18.245614,13.2508834 Z M19.7192982,16.1130742 L18.7719298,16.1130742 L18.7719298,12.2025913 L19.7192982,12.2025913 L19.7192982,16.1130742 L19.7192982,16.1130742 Z M30.6900585,16.1130742 L29.380117,16.1130742 L27.625731,13.180212 L27.625731,16.1130742 L25.7426901,16.1130742 L25.380117,15.2414605 L23.4502924,15.2414605 L23.0994152,16.1130742 L22.0116959,16.1130742 C21.5555556,16.1130742 20.994152,16.0070671 20.6666667,15.6772674 C20.3391813,15.3474676 20.1754386,14.8998822 20.1754386,14.1813899 C20.1754386,13.6042403 20.2807018,13.0742049 20.6783626,12.6501767 C20.9824561,12.343934 21.4502924,12.1908127 22.0818713,12.1908127 L22.9824561,12.1908127 L22.9824561,13.0270907 L22.1052632,13.0270907 C21.7660819,13.0270907 21.5789474,13.0742049 21.3918129,13.262662 C21.2280702,13.4275618 21.122807,13.7338045 21.122807,14.1460542 C21.122807,14.5700824 21.2046784,14.8645465 21.380117,15.0647821 C21.5204678,15.2179034 21.7777778,15.2650177 22.0233918,15.2650177 L22.4444444,15.2650177 L23.754386,12.1908127 L25.1461988,12.1908127 L26.7134503,15.8892815 L26.7134503,12.1908127 L28.128655,12.1908127 L29.754386,14.9116608 L29.754386,12.1908127 L30.7017544,12.1908127 L30.7017544,16.1130742 L30.6900585,16.1130742 L30.6900585,16.1130742 Z M0.081871345,16.8786808 L1.66081871,16.8786808 L2.02339181,16.0070671 L2.81871345,16.0070671 L3.16959064,16.8786808 L6.28070175,16.8786808 L6.28070175,16.2190813 L6.56140351,16.8904594 L8.1871345,16.8904594 L8.46783626,16.2190813 L8.46783626,16.8904594 L16.2105263,16.8904594 L16.2105263,15.4652532 L16.3625731,15.4652532 C16.4678363,15.4652532 16.502924,15.4770318 16.502924,15.6537102 L16.502924,16.8904594 L20.502924,16.8904594 L20.502924,16.5606596 C20.8304094,16.737338 21.3333333,16.8904594 21.9883041,16.8904594 L23.6725146,16.8904594 L24.0350877,16.0188457 L24.8304094,16.0188457 L25.1812865,16.8904594 L28.4327485,16.8904594 L28.4327485,16.06596 L28.9239766,16.8904594 L31.5204678,16.8904594 L31.5204678,11.4252061 L28.9473684,11.4252061 L28.9473684,12.0730271 L28.5847953,11.4252061 L25.9415205,11.4252061 L25.9415205,12.0730271 L25.6140351,11.4252061 L22.0467836,11.4252061 C21.4502924,11.4252061 20.9239766,11.5076561 20.502924,11.7432273 L20.502924,11.4252061 L18.0350877,11.4252061 L18.0350877,11.7432273 C17.7660819,11.5076561 17.3918129,11.4252061 16.9824561,11.4252061 L7.98830409,11.4252061 L7.38011696,12.8268551 L6.76023392,11.4252061 L3.92982456,11.4252061 L3.92982456,12.0730271 L3.62573099,11.4252061 L1.20467836,11.4252061 L0.081871345,14.01649 L0.081871345,16.8786808 L0.081871345,16.8786808 L0.081871345,16.8786808 Z" id="Shape" fill="#FFFFFF"></path>
                <path d="M33.0526316,19.7526502 L31.3684211,19.7526502 C31.2046784,19.7526502 31.0877193,19.7644287 30.994152,19.8233216 C30.9005848,19.8822144 30.8538012,19.9764429 30.8538012,20.1060071 C30.8538012,20.2591284 30.9356725,20.3533569 31.0526316,20.4004711 C31.1461988,20.4358068 31.251462,20.4475854 31.4152047,20.4475854 L31.9181287,20.459364 C32.4210526,20.4711425 32.7602339,20.565371 32.9707602,20.7773852 C33.005848,20.8127208 33.0292398,20.836278 33.0526316,20.8716137 L33.0526316,19.7526502 Z M33.0526316,22.3321555 C32.8304094,22.6619552 32.3859649,22.8268551 31.7894737,22.8268551 L30,22.8268551 L30,21.9905771 L31.7777778,21.9905771 C31.9532164,21.9905771 32.0818713,21.96702 32.1520468,21.8963486 C32.2222222,21.8374558 32.2573099,21.7432273 32.2573099,21.6372203 C32.2573099,21.5194346 32.2105263,21.4369847 32.1403509,21.3780919 C32.0701754,21.3191991 31.9766082,21.2956419 31.8128655,21.2956419 C30.9473684,21.2603062 29.8596491,21.3191991 29.8596491,20.0824499 C29.8596491,19.5170789 30.2222222,18.9163722 31.1929825,18.9163722 L33.0409357,18.9163722 L33.0409357,18.138987 L31.3450292,18.138987 C30.8304094,18.138987 30.4561404,18.2685512 30.1871345,18.4570082 L30.1871345,18.138987 L27.6491228,18.138987 C27.2397661,18.138987 26.7719298,18.2449941 26.5380117,18.4570082 L26.5380117,18.138987 L22.0116959,18.138987 L22.0116959,18.4570082 C21.6491228,18.1978799 21.0409357,18.138987 20.7602339,18.138987 L17.7660819,18.138987 L17.7660819,18.4570082 C17.4853801,18.1743227 16.8421053,18.138987 16.4561404,18.138987 L13.1111111,18.138987 L12.3508772,18.975265 L11.6374269,18.138987 L6.64327485,18.138987 L6.64327485,23.5924617 L11.5438596,23.5924617 L12.3274854,22.7444052 L13.0760234,23.5924617 L16.0935673,23.5924617 L16.0935673,22.3085984 L16.3859649,22.3085984 C16.7836257,22.3203769 17.2631579,22.2968198 17.6725146,22.1201413 L17.6725146,23.5924617 L20.1637427,23.5924617 L20.1637427,22.1672556 L20.2807018,22.1672556 C20.4327485,22.1672556 20.4444444,22.1790342 20.4444444,22.3321555 L20.4444444,23.5924617 L28.0116959,23.5924617 C28.4912281,23.5924617 28.994152,23.4628975 29.2748538,23.2391048 L29.2748538,23.5924617 L31.6959064,23.5924617 C32.1988304,23.5924617 32.6783626,23.5217903 33.0526316,23.3451119 L33.0526316,22.3321555 L33.0526316,22.3321555 L33.0526316,22.3321555 Z M29.3567251,20.7656066 C29.5321637,20.9540636 29.6374269,21.1896349 29.6374269,21.590106 C29.6374269,22.426384 29.1111111,22.8268551 28.1871345,22.8268551 L26.3859649,22.8268551 L26.3859649,21.9905771 L28.1871345,21.9905771 C28.3625731,21.9905771 28.4912281,21.96702 28.5614035,21.8963486 C28.619883,21.8374558 28.6666667,21.7432273 28.6666667,21.6372203 C28.6666667,21.5194346 28.619883,21.4369847 28.5497076,21.3780919 C28.4795322,21.3191991 28.3859649,21.2956419 28.2222222,21.2956419 C27.3567251,21.2603062 26.2690058,21.3191991 26.2690058,20.0824499 C26.2690058,19.5170789 26.619883,18.9163722 27.5906433,18.9163722 L29.4502924,18.9163722 L29.4502924,19.7526502 L27.754386,19.7526502 C27.5906433,19.7526502 27.4736842,19.7644287 27.380117,19.8233216 C27.2748538,19.8822144 27.2397661,19.9764429 27.2397661,20.1060071 C27.2397661,20.2591284 27.3216374,20.3533569 27.4385965,20.4004711 C27.5321637,20.4358068 27.6374269,20.4475854 27.8011696,20.4475854 L28.3040936,20.459364 C28.8070175,20.4711425 29.1461988,20.5535925 29.3567251,20.7656066 L29.3567251,20.7656066 Z M20.994152,20.5300353 C20.8654971,20.6007067 20.7134503,20.6124853 20.5380117,20.6124853 L19.4152047,20.6124853 L19.4152047,19.7408716 L20.5614035,19.7408716 C20.7251462,19.7408716 20.8888889,19.7408716 21.005848,19.811543 C21.122807,19.8704358 21.1929825,20 21.1929825,20.1648999 C21.1929825,20.3180212 21.1111111,20.459364 20.994152,20.5300353 L20.994152,20.5300353 Z M21.5555556,21.0129564 C21.7660819,21.0954064 21.9298246,21.2249706 22.0116959,21.3427562 C22.1403509,21.5312132 22.1637427,21.7078916 22.1637427,22.0612485 L22.1637427,22.8386337 L21.2280702,22.8386337 L21.2280702,22.3557126 C21.2280702,22.1201413 21.251462,21.778563 21.0760234,21.590106 C20.9356725,21.4487633 20.7368421,21.4134276 20.3976608,21.4134276 L19.4152047,21.4134276 L19.4152047,22.8386337 L18.4795322,22.8386337 L18.4795322,18.9281508 L20.619883,18.9281508 C21.0877193,18.9281508 21.4269006,18.9517079 21.7309942,19.1166078 C22.0233918,19.2932862 22.2105263,19.540636 22.2105263,19.9882214 C22.2105263,20.6007067 21.8011696,20.9187279 21.5555556,21.0129564 L21.5555556,21.0129564 Z M22.7251462,18.9281508 L25.8128655,18.9281508 L25.8128655,19.7408716 L23.6374269,19.7408716 L23.6374269,20.4475854 L25.754386,20.4475854 L25.754386,21.2485277 L23.6374269,21.2485277 L23.6374269,22.0259128 L25.8128655,22.0259128 L25.8128655,22.8386337 L22.7251462,22.8386337 L22.7251462,18.9281508 L22.7251462,18.9281508 Z M16.4678363,20.7302709 L15.2748538,20.7302709 L15.2748538,19.7408716 L16.4795322,19.7408716 C16.8187135,19.7408716 17.0409357,19.8822144 17.0409357,20.2237927 C17.0526316,20.5535925 16.8304094,20.7302709 16.4678363,20.7302709 L16.4678363,20.7302709 Z M14.3508772,22.4734982 L12.9239766,20.8833922 L14.3508772,19.3404005 L14.3508772,22.4734982 L14.3508772,22.4734982 Z M10.6783626,22.0141343 L8.39766082,22.0141343 L8.39766082,21.2367491 L10.4327485,21.2367491 L10.4327485,20.4358068 L8.39766082,20.4358068 L8.39766082,19.7290931 L10.7251462,19.7290931 L11.7426901,20.8716137 L10.6783626,22.0141343 L10.6783626,22.0141343 Z M18.0467836,20.2120141 C18.0467836,21.2956419 17.2397661,21.5194346 16.4327485,21.5194346 L15.2748538,21.5194346 L15.2748538,22.8268551 L13.4736842,22.8268551 L12.3274854,21.5312132 L11.1461988,22.8268551 L7.47368421,22.8268551 L7.47368421,18.9163722 L11.2046784,18.9163722 L12.3391813,20.2002356 L13.5204678,18.9163722 L16.4795322,18.9163722 C17.2163743,18.9281508 18.0467836,19.1283863 18.0467836,20.2120141 L18.0467836,20.2120141 Z" id="Shape" fill="#FFFFFF"></path>
            </g>
        </g>
    </g>
</svg>