<?xml version="1.0" encoding="UTF-8" standalone="no"?>
<svg width="40px" height="40px" viewBox="0 0 40 40" version="1.1" xmlns="http://www.w3.org/2000/svg" xmlns:xlink="http://www.w3.org/1999/xlink" xmlns:sketch="http://www.bohemiancoding.com/sketch/ns">
    <!-- Generator: Sketch 3.4.2 (15855) - http://www.bohemiancoding.com/sketch -->
    <title>ic_card_visa</title>
    <desc>Created with Sketch.</desc>
    <defs>
        <linearGradient x1="-0.0503243744%" y1="49.9554441%" x2="100.042354%" y2="49.9554441%" id="linearGradient-1">
            <stop stop-color="#231F5C" offset="0%"></stop>
            <stop stop-color="#034EA2" offset="100%"></stop>
        </linearGradient>
    </defs>
    <g id="New-Assets" stroke="none" stroke-width="1" fill="none" fill-rule="evenodd" sketch:type="MSPage">
        <g id="ic_card_visa" sketch:type="MSLayerGroup">
            <rect id="Rectangle-60" sketch:type="MSShapeGroup" x="0" y="0" width="40" height="40"></rect>
            <path d="M15.9139785,15.1971831 L11.5668203,26.2887324 L8.74039939,26.2887324 L6.60522273,17.4483568 C6.48233487,16.9061033 6.359447,16.7089202 5.97542243,16.4788732 C5.33026114,16.100939 4.2703533,15.7558685 3.33333333,15.5422535 L3.39477727,15.213615 L7.95698925,15.213615 C8.54070661,15.213615 9.06298003,15.6244131 9.1858679,16.3474178 L10.3225806,22.7558685 L13.1182796,15.213615 L15.9139785,15.213615 L15.9139785,15.1971831 Z M27.0199693,22.6737089 C27.0353303,19.7488263 23.2411674,19.584507 23.2565284,18.286385 C23.2718894,17.8920188 23.625192,17.4647887 24.3932412,17.3497653 C24.7772657,17.3004695 25.8371736,17.2511737 27.0353303,17.842723 L27.5115207,15.4929577 C26.8663594,15.2464789 26.0368664,15 25.0076805,15 C22.3655914,15 20.4915515,16.5117371 20.4761905,18.6643192 C20.4608295,20.258216 21.812596,21.1455399 22.8264209,21.6877934 C23.8709677,22.2300469 24.2242704,22.5751174 24.2242704,23.0680751 C24.2089094,23.8075117 23.3947773,24.1361502 22.6267281,24.1525822 C21.2749616,24.1690141 20.4915515,23.758216 19.8771121,23.4460094 L19.3855607,25.8779343 C20.015361,26.1901408 21.1674347,26.4530516 22.3655914,26.4694836 C25.1612903,26.4530516 27.0046083,24.9741784 27.0199693,22.6737089 L27.0199693,22.6737089 Z M34.0092166,26.2887324 L36.4823349,26.2887324 L34.3164363,15.1971831 L32.0276498,15.1971831 C31.5053763,15.1971831 31.0752688,15.5093897 30.890937,16.0023474 L26.8663594,26.2723005 L29.6774194,26.2723005 L30.2304147,24.6126761 L33.671275,24.6126761 L34.0092166,26.2887324 L34.0092166,26.2887324 Z M31.0291859,22.3615023 L32.4423963,18.2042254 L33.2565284,22.3615023 L31.0291859,22.3615023 L31.0291859,22.3615023 Z M19.7388633,15.1971831 L17.5268817,26.2887324 L14.8387097,26.2887324 L17.0506912,15.1971831 L19.7388633,15.1971831 L19.7388633,15.1971831 Z" id="Shape" fill="url(#linearGradient-1)" sketch:type="MSShapeGroup"></path>
        </g>
    </g>
</svg>