<?xml version="1.0" encoding="UTF-8" standalone="no"?>
<svg width="40px" height="40px" viewBox="0 0 40 40" version="1.1" xmlns="http://www.w3.org/2000/svg" xmlns:xlink="http://www.w3.org/1999/xlink" xmlns:sketch="http://www.bohemiancoding.com/sketch/ns">
    <!-- Generator: Sketch 3.4.2 (15855) - http://www.bohemiancoding.com/sketch -->
    <title>ic_card_mastercard</title>
    <desc>Created with Sketch.</desc>
    <defs></defs>
    <g id="New-Assets" stroke="none" stroke-width="1" fill="none" fill-rule="evenodd" sketch:type="MSPage">
        <g id="ic_card_mastercard" sketch:type="MSLayerGroup">
            <path d="M0,0 L40,0 L40,40 L0,40 L0,0 L0,0 Z" id="Shape-Copy-4" sketch:type="MSShapeGroup"></path>
            <g id="Group" transform="translate(3.333333, 10.000000)" sketch:type="MSShapeGroup">
                <path d="M16.6505051,17.4082 C18.4014141,19.0054 20.7529293,19.9742 23.3105051,19.9742 C28.8030303,19.9742 33.2488889,15.539 33.2488889,10.084 C33.2488889,4.6122 28.8030303,0.177 23.3105051,0.177 C20.7529293,0.177 18.4012121,1.1456 16.6505051,2.743 C14.6422222,4.5612 13.3719192,7.1782 13.3719192,10.084 C13.3719192,12.9898 14.6422222,15.607 16.6505051,17.4082 L16.6505051,17.4082 L16.6505051,17.4082 Z" id="Shape" fill="#FCB131"></path>
                <path d="M31.9272727,15.5898 C31.9272727,15.4198 32.0646465,15.284 32.2361616,15.284 C32.4250505,15.284 32.5622222,15.42 32.5622222,15.5898 C32.5622222,15.777 32.4248485,15.9128 32.2361616,15.9128 C32.0646465,15.9128 31.9272727,15.777 31.9272727,15.5898 L31.9272727,15.5898 L31.9272727,15.5898 Z M32.2361616,15.845 C32.3735354,15.845 32.4935354,15.7258 32.4935354,15.59 C32.4935354,15.4542 32.3733333,15.3522 32.2361616,15.3522 C32.1159596,15.3522 31.9959596,15.4542 31.9959596,15.59 C31.9959596,15.7258 32.1161616,15.845 32.2361616,15.845 L32.2361616,15.845 L32.2361616,15.845 Z M32.2018182,15.743 L32.1331313,15.743 L32.1331313,15.454 L32.2533333,15.454 C32.2707071,15.454 32.3048485,15.454 32.3220202,15.4712 C32.3563636,15.488 32.3563636,15.5052 32.3563636,15.5392 C32.3563636,15.5732 32.3393939,15.6072 32.3048485,15.6072 L32.3735354,15.7432 L32.2876768,15.7432 L32.2533333,15.624 L32.2018182,15.624 L32.2018182,15.743 L32.2018182,15.573 L32.2361616,15.573 L32.2707071,15.573 C32.2876768,15.573 32.2876768,15.5558 32.2876768,15.539 C32.2876768,15.5218 32.2876768,15.5218 32.2707071,15.505 L32.2361616,15.505 L32.2018182,15.505 L32.2018182,15.573 L32.2018182,15.743 L32.2018182,15.743 Z" id="Shape" fill="#FCB131"></path>
                <path d="M19.8606061,9.0304 C19.8262626,8.6736 19.7575758,8.3338 19.6886869,7.9768 L13.6125253,7.9768 C13.6812121,7.62 13.7840404,7.28 13.8870707,6.9402 L19.3971717,6.9402 C19.2767677,6.5834 19.139596,6.2266 18.9850505,5.8866 L14.3163636,5.8866 C14.4880808,5.5298 14.6767677,5.173 14.8828283,4.833 L18.4016162,4.833 C18.1785859,4.4762 17.9210101,4.1192 17.6464646,3.7964 L15.6381818,3.7964 C15.9470707,3.4226 16.2905051,3.0658 16.6509091,2.7428 C14.8830303,1.1624 12.5484848,0.1768 9.97373737,0.1768 C4.49818182,0.1768 0.0353535354,4.612 0.0353535354,10.0838 C0.0353535354,15.5388 4.49818182,19.974 9.97373737,19.974 C12.5484848,19.974 14.8828283,19.0052 16.6509091,17.408 L16.6509091,17.408 C17.0115152,17.085 17.3375758,16.7452 17.6464646,16.3712 L15.6381818,16.3712 C15.3636364,16.0314 15.1232323,15.6916 14.8830303,15.3176 L18.4018182,15.3176 C18.6248485,14.9778 18.8137374,14.638 18.9854545,14.264 L14.3167677,14.264 C14.1622222,13.9242 14.0078788,13.5844 13.8874747,13.2272 L19.3975758,13.2272 C19.5177778,12.8874 19.6034343,12.5308 19.6890909,12.1736 C19.7579798,11.8338 19.8266667,11.4768 19.8610101,11.12 C19.8953535,10.7802 19.9125253,10.4404 19.9125253,10.0834 C19.9119192,9.7272 19.8947475,9.3704 19.8606061,9.0304 L19.8606061,9.0304 L19.8606061,9.0304 Z" id="Shape" fill="#ED1C2E"></path>
                <path d="M31.9272727,12.0603882 C31.9272727,11.8903882 32.0646465,11.7545882 32.2361616,11.7545882 C32.4250505,11.7545882 32.5622222,11.8905882 32.5622222,12.0603882 C32.5622222,12.2475882 32.4248485,12.3833882 32.2361616,12.3833882 C32.0646465,12.3833882 31.9272727,12.2475882 31.9272727,12.0603882 L31.9272727,12.0603882 L31.9272727,12.0603882 Z M32.2361616,12.3155882 C32.3735354,12.3155882 32.4935354,12.1963882 32.4935354,12.0605882 C32.4935354,11.9247882 32.3733333,11.8227882 32.2361616,11.8227882 C32.1159596,11.8227882 31.9959596,11.9247882 31.9959596,12.0605882 C31.9959596,12.1963882 32.1161616,12.3155882 32.2361616,12.3155882 L32.2361616,12.3155882 L32.2361616,12.3155882 Z M32.2018182,12.2135882 L32.1331313,12.2135882 L32.1331313,11.9245882 L32.2533333,11.9245882 C32.2707071,11.9245882 32.3048485,11.9245882 32.3220202,11.9417882 C32.3563636,11.9585882 32.3563636,11.9757882 32.3563636,12.0097882 C32.3563636,12.0437882 32.3393939,12.0777882 32.3048485,12.0777882 L32.3735354,12.2137882 L32.2876768,12.2137882 L32.2533333,12.0945882 L32.2018182,12.0945882 L32.2018182,12.2135882 L32.2018182,12.0435882 L32.2361616,12.0435882 L32.2707071,12.0435882 C32.2876768,12.0435882 32.2876768,12.0263882 32.2876768,12.0095882 C32.2876768,11.9923882 32.2876768,11.9923882 32.2707071,11.9755882 L32.2361616,11.9755882 L32.2018182,11.9755882 L32.2018182,12.0435882 L32.2018182,12.2135882 L32.2018182,12.2135882 Z" id="Shape-Copy-3" fill="#FFFFFF"></path>
                <path d="M13.2690909,12.939 C12.9430303,13.0238 12.7026263,13.075 12.4624242,13.075 C11.9474747,13.075 11.6383838,12.752 11.6383838,12.1742 C11.6383838,12.0554 11.6555556,11.9364 11.6727273,11.8004 L11.7414141,11.4094 L11.7929293,11.0868 L12.2563636,8.2998 L13.2862626,8.2998 L13.1660606,8.9116 L13.8183838,8.9116 L13.6638384,9.9312 L13.0115152,9.9312 L12.7369697,11.5966 C12.719798,11.6818 12.719798,11.7326 12.719798,11.7666 C12.719798,11.9876 12.8228283,12.0724 13.080202,12.0724 C13.200404,12.0724 13.3032323,12.0556 13.4062626,12.0384 L13.2690909,12.939 Z M16.5991919,12.905 C16.2216162,13.007 15.8783838,13.0578 15.5006061,13.0578 C14.3335354,13.0578 13.6640404,12.446 13.6640404,11.2394 C13.6640404,9.8292 14.4537374,8.8096 15.5521212,8.8096 C16.4274747,8.8096 16.9941414,9.3874 16.9941414,10.288 C16.9941414,10.5938 16.959798,10.883 16.8739394,11.2908 L14.7282828,11.2908 C14.7111111,11.3588 14.7111111,11.3928 14.7111111,11.4268 C14.7111111,11.9026 15.0371717,12.1404 15.6551515,12.1404 C16.049899,12.1404 16.3931313,12.0556 16.7707071,11.8858 L16.5991919,12.905 Z M15.9640404,10.475 L15.9640404,10.271 C15.9640404,9.931 15.7751515,9.7442 15.4490909,9.7442 C15.1058586,9.7442 14.8654545,9.999 14.7626263,10.475 L15.9640404,10.475 Z M5.02989899,12.9898 L3.96565657,12.9898 L4.58363636,9.1326 L3.19333333,12.9898 L2.45535354,12.9898 L2.36949495,9.1496 L1.71717172,12.9898 L0.67010101,12.9898 L1.51111111,7.977 L3.07313131,7.977 L3.10747475,11.0696 L4.15454545,7.977 L5.87111111,7.977 L5.02989899,12.9898 Z M7.6220202,11.1714 C7.5189899,11.1546 7.48464646,11.1546 7.4159596,11.1546 C6.7979798,11.1546 6.48909091,11.3924 6.48909091,11.7664 C6.48909091,12.0214 6.64363636,12.1914 6.88383838,12.1914 C7.39878788,12.1914 7.60484848,11.7664 7.6220202,11.1714 Z M8.48020202,12.9898 L7.55333333,12.9898 L7.57050505,12.5652 C7.33010101,12.8878 7.0040404,13.0578 6.43757576,13.0578 C5.92262626,13.0578 5.47636364,12.5992 5.47636364,11.9364 C5.47636364,11.7496 5.51070707,11.5798 5.56222222,11.4094 C5.73393939,10.7808 6.36909091,10.3898 7.34747475,10.373 C7.46747475,10.373 7.65636364,10.373 7.82808081,10.3898 C7.86242424,10.2538 7.86242424,10.203 7.86242424,10.118 C7.86242424,9.8462 7.63939394,9.7612 7.14141414,9.7612 C6.83252525,9.7612 6.48909091,9.8122 6.24888889,9.8972 L6.09454545,9.9312 L6.02585859,9.9482 L6.18020202,9.0306 C6.6779798,8.8778 7.03858586,8.8098 7.43333333,8.8098 C8.36020202,8.8098 8.8579798,9.2346 8.8579798,10.0164 C8.8579798,10.2202 8.87515152,10.3734 8.80646465,10.8152 L8.56626263,12.2766 L8.53191919,12.5316 L8.51474747,12.7356 L8.49757576,12.8716 L8.48020202,12.9898 Z M21.7828283,8.9456 C22.0917172,8.9456 22.3664646,9.0304 22.7440404,9.2174 L22.9329293,8.1298 C22.830101,8.0788 22.7955556,8.0788 22.6583838,8.0278 L22.2292929,7.9088 C22.0919192,7.8748 21.920404,7.8578 21.7315152,7.8578 C21.1993939,7.8578 20.8905051,7.8748 20.5644444,8.0618 C20.3927273,8.1808 20.169697,8.3336 19.9292929,8.6056 L19.7919192,8.5716 L18.6933333,9.3364 L18.7448485,8.9114 L17.6121212,8.9114 L16.9428283,12.9898 L18.0242424,12.9898 L18.4189899,10.7976 C18.4189899,10.7976 18.5735354,10.4918 18.6420202,10.3898 C18.8480808,10.1352 19.019596,10.1352 19.2428283,10.1352 L19.3288889,10.1352 C19.2943434,10.373 19.2771717,10.6278 19.2771717,10.9168 C19.2771717,12.2422 20.0325253,13.075 21.199798,13.075 C21.4915152,13.075 21.7490909,13.041 22.1438384,12.939 L22.3327273,11.7836 C21.9894949,11.9704 21.680404,12.0554 21.4230303,12.0554 C20.7878788,12.0554 20.410303,11.5796 20.410303,10.8316 C20.409697,9.7272 20.9761616,8.9456 21.7828283,8.9456 Z M30.8973737,7.977 L30.6571717,9.4044 C30.399798,9.0136 30.0907071,8.8266 29.6787879,8.8266 C29.1121212,8.8266 28.580202,9.1496 28.2539394,9.7612 L28.2539394,9.7442 L27.5674747,9.3364 L27.6361616,8.9114 L26.4862626,8.9114 L25.8339394,12.9898 L26.8981818,12.9898 L27.2585859,10.7976 C27.2585859,10.7976 27.5331313,10.4918 27.6018182,10.3898 C27.7735354,10.1858 27.9450505,10.152 28.0824242,10.1352 C27.9622222,10.475 27.8935354,10.8828 27.8935354,11.3414 C27.8935354,12.3614 28.4256566,13.041 29.2153535,13.041 C29.610101,13.041 29.9189899,12.905 30.2109091,12.582 L30.1593939,12.9898 L31.1721212,12.9898 L31.9959596,7.977 L30.8973737,7.977 L30.8973737,7.977 Z M29.5757576,12.0214 C29.2153535,12.0214 29.0264646,11.7496 29.0264646,11.2226 C29.0264646,10.4238 29.3694949,9.8462 29.8674747,9.8462 C30.2450505,9.8462 30.4339394,10.1352 30.4339394,10.645 C30.4339394,11.4606 30.0907071,12.0214 29.5757576,12.0214 Z M24.6151515,11.1714 C24.5121212,11.1546 24.4777778,11.1546 24.4090909,11.1546 C23.7911111,11.1546 23.4822222,11.3924 23.4822222,11.7664 C23.4822222,12.0214 23.6367677,12.1914 23.8769697,12.1914 C24.3919192,12.1914 24.5979798,11.7664 24.6151515,11.1714 Z M25.4733333,12.9898 L24.5292929,12.9898 L24.5636364,12.5652 C24.3234343,12.8878 23.9971717,13.0578 23.4309091,13.0578 C22.8987879,13.0578 22.4351515,12.616 22.4351515,11.9364 C22.4351515,10.9676 23.1733333,10.3732 24.3406061,10.3732 C24.4608081,10.3732 24.6494949,10.3732 24.8040404,10.39 C24.8383838,10.254 24.8555556,10.2032 24.8555556,10.1182 C24.8555556,9.8464 24.6325253,9.7614 24.1175758,9.7614 C23.8258586,9.7614 23.4652525,9.8124 23.2250505,9.8974 L23.0876768,9.9314 L23.0189899,9.9484 L23.1735354,9.0308 C23.6713131,8.878 24.0317172,8.81 24.4264646,8.81 C25.3533333,8.81 25.8341414,9.2348 25.8341414,10.0166 C25.8341414,10.2204 25.8682828,10.3736 25.7824242,10.8154 L25.5593939,12.2768 L25.5250505,12.5318 L25.4907071,12.7358 L25.4735354,12.8718 L25.4735354,12.9898 L25.4733333,12.9898 Z M10.7286869,9.7782 C10.9347475,9.7782 11.2264646,9.7952 11.5353535,9.8462 L11.689899,8.8946 C11.3810101,8.8606 10.9688889,8.8096 10.7286869,8.8096 C9.52707071,8.8096 9.13232323,9.4554 9.13232323,10.2032 C9.13232323,10.6958 9.35555556,11.0528 9.93919192,11.3246 C10.3682828,11.5286 10.4369697,11.5624 10.4369697,11.7496 C10.4369697,12.0042 10.2139394,12.1574 9.80181818,12.1574 C9.47575758,12.1574 9.16666667,12.1062 8.82343434,11.9874 L8.70323232,12.9218 L8.72040404,12.939 L8.92646465,12.973 C8.99515152,12.9898 9.0810101,13.007 9.20121212,13.0238 C9.45858586,13.041 9.68181818,13.0578 9.81919192,13.0578 C11.0208081,13.0578 11.5185859,12.5992 11.5185859,11.6984 C11.5185859,11.1374 11.2440404,10.7976 10.7117172,10.5598 C10.2482828,10.3558 10.1967677,10.322 10.1967677,10.1352 C10.1965657,9.9482 10.4026263,9.7782 10.7286869,9.7782 Z" id="Shape" fill="#003473"></path>
                <path d="M23.2248485,7.807 L23.0359596,8.8946 C22.6581818,8.7076 22.3836364,8.6228 22.0745455,8.6228 C21.2678788,8.6228 20.7014141,9.4046 20.7014141,10.5092 C20.7014141,11.2736 21.0789899,11.7326 21.7141414,11.7326 C21.9715152,11.7326 22.2806061,11.6478 22.6238384,11.4776 L22.4349495,12.6162 C22.040202,12.7182 21.7826263,12.7694 21.4909091,12.7694 C20.3238384,12.7694 19.6026263,11.9366 19.6026263,10.594 C19.6026263,8.8098 20.5983838,7.5524 22.0228283,7.5524 C22.2117172,7.5524 22.3832323,7.5694 22.5208081,7.6034 L22.949899,7.7054 C23.0874747,7.756 23.1216162,7.773 23.2248485,7.807 Z M19.7575758,8.5546 L19.6545455,8.5546 C19.2939394,8.5546 19.0878788,8.7246 18.7618182,9.2174 L18.8648485,8.5886 L17.8864646,8.5886 L17.2171717,12.6672 L18.2985859,12.6672 C18.6933333,10.1692 18.7963636,9.7442 19.3113131,9.7442 L19.38,9.7442 C19.4830303,9.2514 19.620202,8.8944 19.7921212,8.5716 L19.7575758,8.5546 Z M13.5438384,12.616 C13.2521212,12.718 13.0117172,12.752 12.7715152,12.752 C12.2222222,12.752 11.9131313,12.4462 11.9131313,11.8516 C11.9131313,11.7496 11.930303,11.6134 11.9474747,11.4946 L12.0161616,11.0868 L12.0674747,10.7638 L12.5309091,7.977 L13.5951515,7.977 L13.4749495,8.5888 L14.0242424,8.5888 L13.8868687,9.5914 L13.3375758,9.5914 L13.0458586,11.2908 C13.0286869,11.3588 13.0286869,11.4096 13.0286869,11.4608 C13.0286869,11.6648 13.1317172,11.7498 13.3890909,11.7498 C13.5092929,11.7498 13.6123232,11.7498 13.6810101,11.7158 L13.5438384,12.616 Z M9.40707071,9.8802 C9.40707071,10.3898 9.64727273,10.7468 10.2137374,11.0188 C10.66,11.2228 10.7286869,11.2906 10.7286869,11.4606 C10.7286869,11.7156 10.539798,11.8344 10.1107071,11.8344 C9.78464646,11.8344 9.49272727,11.7836 9.14949495,11.6816 L8.99494949,12.616 L9.04646465,12.6332 L9.23535354,12.6672 C9.30383838,12.684 9.38989899,12.7012 9.52707071,12.7012 C9.76727273,12.7352 9.97333333,12.7352 10.1107071,12.7352 C11.2436364,12.7352 11.7757576,12.3102 11.7757576,11.3758 C11.7757576,10.8148 11.5527273,10.4918 11.0206061,10.2372 C10.5571717,10.0332 10.5056566,9.9822 10.5056566,9.7954 C10.5056566,9.5746 10.6945455,9.4726 11.0377778,9.4726 C11.2438384,9.4726 11.5355556,9.4896 11.810101,9.5236 L11.9646465,8.589 C11.690101,8.538 11.2610101,8.504 11.0206061,8.504 C9.8189899,8.5038 9.38989899,9.1326 9.40707071,9.8802 Z M31.4466667,12.6672 L30.4339394,12.6672 L30.4854545,12.2762 C30.1937374,12.582 29.8846465,12.718 29.489899,12.718 C28.700202,12.718 28.1852525,12.0554 28.1852525,11.0356 C28.1852525,9.6764 28.9919192,8.5208 29.9361616,8.5208 C30.3652525,8.5208 30.6741414,8.7078 30.9660606,9.0816 L31.2062626,7.654 L32.2707071,7.654 L31.4466667,12.6672 Z M29.8676768,11.7156 C30.3654545,11.7156 30.7086869,11.1374 30.7086869,10.339 C30.7086869,9.8122 30.519798,9.5402 30.1422222,9.5402 C29.6616162,9.5402 29.3010101,10.101 29.3010101,10.8994 C29.3010101,11.4438 29.490101,11.7156 29.8676768,11.7156 Z M16.8393939,12.582 C16.4616162,12.7012 16.1183838,12.752 15.7236364,12.752 C14.5220202,12.752 13.9040404,12.1234 13.9040404,10.9168 C13.9040404,9.5234 14.6937374,8.4868 15.7751515,8.4868 C16.6676768,8.4868 17.2341414,9.0646 17.2341414,9.9652 C17.2341414,10.2712 17.199798,10.5598 17.0967677,10.9848 L14.9682828,10.9848 C14.9511111,11.0356 14.9511111,11.0696 14.9511111,11.1036 C14.9511111,11.5798 15.2773737,11.8176 15.8951515,11.8176 C16.289899,11.8176 16.6331313,11.7496 17.0109091,11.5626 L16.8393939,12.582 Z M16.2385859,10.152 L16.2385859,9.9482 C16.2385859,9.6084 16.049697,9.4214 15.7236364,9.4214 C15.380202,9.4214 15.14,9.6764 15.0369697,10.152 L16.2385859,10.152 Z M5.30464646,12.6672 L4.24040404,12.6672 L4.85838384,8.8096 L3.46808081,12.6672 L2.72989899,12.6672 L2.6440404,8.8436 L1.99171717,12.6672 L0.996363636,12.6672 L1.83737374,7.654 L3.38222222,7.654 L3.43373737,10.7636 L4.46343434,7.654 L6.14565657,7.654 L5.30464646,12.6672 Z M7.96525253,10.8488 C7.86222222,10.8488 7.81070707,10.8316 7.72505051,10.8316 C7.12424242,10.8316 6.81535354,11.0526 6.81535354,11.4606 C6.81535354,11.7156 6.95272727,11.8684 7.19292929,11.8684 C7.6389899,11.8684 7.94808081,11.4606 7.96525253,10.8488 Z M8.75474747,12.6672 L7.86222222,12.6672 L7.87939394,12.2422 C7.60484848,12.582 7.24424242,12.7352 6.74646465,12.7352 C6.16282828,12.7352 5.76808081,12.2934 5.76808081,11.6306 C5.76808081,10.6278 6.45454545,10.0502 7.65616162,10.0502 C7.77636364,10.0502 7.93090909,10.0672 8.10242424,10.0842 C8.13676768,9.9482 8.13676768,9.8972 8.13676768,9.8294 C8.13676768,9.5576 7.94787879,9.4556 7.45010101,9.4556 C7.14121212,9.4556 6.79777778,9.4896 6.55757576,9.5576 L6.4030303,9.6086 L6.3,9.6256 L6.45454545,8.708 C6.98666667,8.555 7.34707071,8.504 7.7420202,8.504 C8.66888889,8.504 9.16666667,8.9118 9.16666667,9.6936 C9.16666667,9.8976 9.14949495,10.0504 9.08080808,10.5094 L8.84040404,11.954 L8.80606061,12.2086 L8.78888889,12.4126 L8.77171717,12.5658 L8.75474747,12.6672 Z M24.9583838,10.8488 C24.8381818,10.8488 24.7866667,10.8316 24.7181818,10.8316 C24.100202,10.8316 23.7913131,11.0526 23.7913131,11.4606 C23.7913131,11.7156 23.9458586,11.8684 24.1860606,11.8684 C24.6151515,11.8684 24.9412121,11.4606 24.9583838,10.8488 Z M25.7478788,12.6672 L24.8553535,12.6672 L24.8725253,12.2422 C24.5979798,12.582 24.2373737,12.7352 23.739798,12.7352 C23.1561616,12.7352 22.7614141,12.2934 22.7614141,11.6306 C22.7614141,10.6278 23.4478788,10.0502 24.6494949,10.0502 C24.769697,10.0502 24.9240404,10.0672 25.0785859,10.0842 C25.1129293,9.9482 25.130101,9.8972 25.130101,9.8294 C25.130101,9.5576 24.9412121,9.4556 24.4436364,9.4556 C24.1347475,9.4556 23.7743434,9.4896 23.5339394,9.5576 L23.3965657,9.6086 L23.2935354,9.6256 L23.4480808,8.708 C23.980202,8.555 24.3406061,8.504 24.7353535,8.504 C25.6622222,8.504 26.1430303,8.9118 26.1430303,9.6936 C26.1430303,9.8976 26.1430303,10.0504 26.0569697,10.5094 L25.8339394,11.954 L25.7993939,12.2086 L25.7650505,12.4126 L25.7478788,12.5658 L25.7478788,12.6672 Z M28.6317172,8.5546 L28.5286869,8.5546 C28.1682828,8.5546 27.9622222,8.7246 27.6361616,9.2174 L27.7391919,8.5886 L26.7608081,8.5886 L26.1084848,12.6672 L27.1729293,12.6672 C27.5676768,10.1692 27.6707071,9.7442 28.1856566,9.7442 L28.2543434,9.7442 C28.3573737,9.2514 28.4945455,8.8944 28.6662626,8.5716 L28.6317172,8.5546 Z" id="Shape" fill="#FFFFFF"></path>
            </g>
        </g>
    </g>
</svg>