<svg width="529" class="logo-navbar" height="73" viewBox="0 0 529 73" fill="none" xmlns="http://www.w3.org/2000/svg">
<g id="navbar-logo-name">
<path d="M60.9336 45.6797C60.9336 38.7344 57.3711 35.207 49.4141 35.207C40.9453 35.207 36.2539 40.0078 36.2539 47.3516V69.7148H30.7812V44.0781C30.7812 39.2812 27.2656 35.207 19.8008 35.207C11.9102 35.207 6.10938 39.6445 6.10938 48.4062V69.7148H0.621094V31.8633H6.10938V38.8438H6.26562C8.55469 34.8633 12.7383 30.6602 21.5547 30.6602C30.2461 30.6602 34.2812 35.207 35.3711 38.9727C37.2344 35.207 42.7812 30.6602 50.543 30.6602C61.3984 30.6602 66.4336 36.0625 66.4336 43.8789V69.7148H60.9336" fill="white"/>
<path d="M107.512 49.3359C105.039 50.8437 101.34 51.1523 90.3438 52.1719C83.9766 52.7539 80.2227 54.625 80.2227 59.1133C80.2227 65.043 85.4336 66.7852 91.3945 66.7852C98.8125 66.7852 107.512 62.8594 107.512 55.0781V49.3359ZM76.4492 43.5352C77.2617 35.5898 81.6523 30.6641 94.8516 30.6641C107.758 30.6641 112.531 34.625 112.531 41.8789V61.7148C112.531 64.7852 113.402 65.9141 115.594 65.9141C116.574 65.9141 117.492 65.8242 118.484 65.75V69.4258C117.375 69.6055 115.668 69.9844 113.887 69.9844C108.297 69.9844 107.996 66.2617 107.93 63.2969H107.758C106.105 65.75 102.359 70.8594 89.7305 70.8594C83.1328 70.8594 74.7422 68.0234 74.7422 59.5312C74.7422 49.2266 85.5039 48.0781 94.0039 47.6445C105.977 47.0078 107.512 46.3359 107.512 42.6445C107.512 37.1523 103.766 35.207 94.7227 35.207C86.0312 35.207 81.8789 37.4805 81.5156 43.5352" fill="white"/>
<path d="M123.984 31.8633H129.465V40.4961H129.629C131.609 35.9727 135.246 30.6602 144.391 30.6602C145.973 30.6602 146.883 30.8242 147.676 31V36.5156C145.973 36.207 144.355 36.0625 142.637 36.0625C136.676 36.0625 129.465 39.6445 129.465 50.4062V69.7148H123.984" fill="white"/>
<path d="M192.59 56.1523C191.562 61.0977 187.09 70.8594 173.098 70.8594C159.102 70.8594 151.301 62.6602 151.301 50.7773C151.301 39.4453 158.422 30.6602 173.098 30.6602C186.289 30.6602 191.441 38.7344 192.297 44.2266H186.824C185.098 37.7344 179.918 35.207 173.098 35.207C161.988 35.207 156.809 42.0625 156.809 50.7773C156.809 60.1523 162.602 66.3672 173.098 66.3672C181.191 66.3672 185.687 62.043 187.09 56.1523" fill="white"/>
<path d="M200.535 17.3164H206.031V39.2773H206.188C207.805 35.2773 213.641 30.6641 222.168 30.6641C235.039 30.6641 238.867 37.2617 238.867 46.2617V69.7148H233.387V45.3164C233.387 37.8086 228.676 35.207 221.73 35.207C210.969 35.207 206.031 40.5703 206.031 49.1523V69.7148H200.535" fill="white"/>
<path d="M285.156 48.0078C283.582 38.7187 276.582 35.207 269.258 35.207C262.164 35.207 254.621 38.7344 253.348 48.0078H285.156ZM289.645 57.625C287.438 64.332 281.656 70.8594 268.848 70.8594C253.074 70.8594 247.875 60.0078 247.875 50.7773C247.875 40.207 254.449 30.6641 268.848 30.6641C278.828 30.6641 290.617 34.8984 290.617 52.0977H253.348C253.348 59.9492 259.086 66.3672 268.848 66.3672C278.082 66.3672 282.246 63.3516 284.164 57.625" fill="white"/>
</g>
<g class="com-br">
    <path d="M306.496 70.6836C305.699 70.6836 304.918 70.6016 304.148 70.4375C303.383 70.2773 302.746 69.8789 302.246 69.2422C301.742 68.6094 301.492 67.582 301.492 66.1641C301.492 64.4219 301.766 63.1172 302.312 62.2422C302.855 61.375 303.59 60.7969 304.504 60.5156C305.422 60.2383 306.422 60.0977 307.516 60.0977C308.344 60.0977 309.141 60.1797 309.906 60.3398C310.676 60.5039 311.305 60.8945 311.789 61.5156C312.277 62.1328 312.52 63.1523 312.52 64.5703C312.52 68.6445 310.512 70.6836 306.496 70.6836Z" fill="#b3b836"/>
    <path d="M328.289 70.2383C323.684 70.2383 320.301 68.7695 318.145 65.832C315.992 62.8945 314.914 58.8438 314.914 53.6758C314.914 50.9883 315.281 48.1445 316.02 45.1484C316.758 42.1523 317.852 39.3477 319.297 36.7344C320.742 34.1172 322.531 31.9883 324.656 30.332C326.781 28.6797 329.23 27.8516 332.008 27.8516C334.605 27.8516 336.586 28.5977 337.945 30.0898C339.301 31.5781 339.98 33.418 339.98 35.6016C339.98 37.9062 339.465 39.8711 338.434 41.4922C337.781 42.4961 336.895 43 335.773 43C334.387 43 333.691 42.6758 333.691 42.0273C333.691 41.7891 333.809 41.4922 334.047 41.1406C335.199 39.457 335.773 37.832 335.773 36.2695C335.773 35.3516 335.547 34.6133 335.09 34.0547C334.629 33.4922 334.062 33.2109 333.383 33.2109C331.195 33.2109 329.352 35.707 327.848 40.6953C326.52 45.0664 325.852 49.6133 325.852 54.3398C325.852 55.8164 325.992 57.3594 326.273 58.9688C326.555 60.5781 327.055 61.9414 327.777 63.0625C328.504 64.1875 329.543 64.7461 330.902 64.7461C332.437 64.7461 333.957 64.1289 335.465 62.8867C340.16 58.9609 344.027 52.0508 347.066 42.1562C347.305 41.332 347.863 40.918 348.75 40.918C349.488 40.918 350.035 41.168 350.391 41.6719C350.625 42.0273 350.742 42.4102 350.742 42.8242C350.742 43.1484 350.242 44.8164 349.238 47.8281C347.379 53.4375 344.852 58.3242 341.664 62.4883C337.648 67.6563 333.187 70.2383 328.289 70.2383Z" fill="#b3b836"/>
    <path d="M366.156 52.6992C366.777 49.3359 367.09 45.8945 367.09 42.3789C367.09 39.4258 366.883 37.0352 366.469 35.2031C365.848 32.5469 364.652 31.2188 362.879 31.2188C361.875 31.2188 361.094 31.7266 360.531 32.7461C359.973 33.7656 359.582 34.9766 359.359 36.3789C359.137 37.7813 359.027 39.0742 359.027 40.2539C359.027 43.207 359.633 45.6875 360.844 47.6953C362.172 49.9687 363.941 51.6367 366.156 52.6992ZM360.047 64.4375C362.141 64.4375 363.867 61.9297 365.227 56.9062C361.535 55.5508 358.746 53.0547 356.855 49.4219C356.711 51.4609 356.637 53.2891 356.637 54.9141C356.637 56.6562 356.73 58.2539 356.922 59.6992C357.113 61.1445 357.461 62.2969 357.965 63.1523C358.465 64.0117 359.16 64.4375 360.047 64.4375ZM359.16 69.4414C356.77 69.4414 354.789 68.8203 353.223 67.582C348.887 64.1875 346.715 57.7344 346.715 48.2266C346.715 45.9531 346.867 43.4414 347.18 40.6953C347.488 37.9492 348.426 35.7227 349.992 34.0078C350.906 33.0039 352.117 32.5039 353.621 32.5039C354.48 32.5039 355.203 32.5898 355.793 32.7695C357.328 28.9023 359.809 26.9648 363.234 26.9648C369.258 26.9648 372.27 31.8828 372.27 41.7148C372.27 45.9687 371.914 50.0117 371.207 53.8516C375.191 53.8242 378.16 50.8398 380.109 44.9062C380.434 43.8711 380.723 42.9492 380.973 42.1367C381.223 41.3242 381.809 40.918 382.723 40.918C383.43 40.918 383.977 41.168 384.359 41.6719C384.598 42.0273 384.715 42.4102 384.715 42.8242C384.715 43.207 384.359 44.4609 383.652 46.5898C381.23 54 376.773 57.7344 370.277 57.793C368.031 65.5586 364.328 69.4414 359.16 69.4414Z" fill="#b3b836"/>
    <path d="M425.508 72.0117C422.082 72.0117 419.676 70.5078 418.289 67.4922C416.902 64.4805 416.207 60.0234 416.207 54.1172C416.207 51.8437 416.266 49.6875 416.383 47.6523C416.504 46.0273 416.562 44.375 416.562 42.6914L416.52 40.6523C416.488 39.0586 416.207 38.2617 415.676 38.2617C414.703 38.2617 413.793 39.25 412.953 41.2266C412.109 43.207 411.355 45.6133 410.691 48.4492C410.027 51.2812 409.477 54.0898 409.031 56.8633C408.824 58.2227 408.559 59.6523 408.234 61.1602C407.91 62.6641 407.422 63.9648 406.773 65.0586C406.121 66.1484 405.238 66.6953 404.113 66.6953C401.43 66.6953 400.086 64.0664 400.086 58.8125L400.129 46.5859C400.129 44.8164 399.996 43.2812 399.73 41.9805C399.465 40.6797 399.066 40.0312 398.535 40.0312C397.473 40.0312 396.438 41.1328 395.438 43.332C394.43 45.5313 393.523 48.1328 392.711 51.1289C391.898 54.125 391.25 56.9961 390.762 59.7422C390.273 62.4883 390.031 64.4531 390.031 65.6328C390.031 67.5234 389.699 68.7617 389.035 69.3516C388.371 69.9453 387.535 70.2383 386.531 70.2383C384.438 70.2383 383.137 69.3086 382.633 67.4492C381.512 63.3437 380.953 56.168 380.953 45.9258C380.953 40.1641 381.086 35.9141 381.352 33.168C381.469 32.0469 381.77 31.2031 382.258 30.6406C382.746 30.082 383.395 29.7109 384.207 29.5352C385.02 29.3594 385.91 29.2695 386.887 29.2695C387.742 29.2695 388.57 29.3281 389.367 29.4453C390.164 29.5664 390.828 29.8516 391.359 30.3086C391.891 30.7695 392.156 31.5117 392.156 32.5469C392.156 33.6406 392.07 34.7773 391.891 35.957C391.508 38.6445 391.195 41.375 390.961 44.1523C394.211 35.8828 397.961 31.75 402.211 31.75C403.805 31.75 405.051 32.1992 405.953 33.1016C406.855 34.0039 407.512 35.1523 407.926 36.5547C408.34 37.957 408.59 39.4258 408.676 40.9609C409.477 38.8672 410.422 36.9688 411.512 35.2695C412.605 33.5742 413.859 32.207 415.277 31.1758C416.695 30.1406 418.289 29.625 420.062 29.625C421.832 29.625 423.215 30.1172 424.203 31.1094C425.191 32.0977 425.895 33.418 426.305 35.0703C426.719 36.7266 426.926 38.5547 426.926 40.5625C426.926 44.375 426.84 48.2734 426.66 52.2578C426.512 55.7109 426.438 58.8555 426.438 61.6914C426.438 64.5273 426.762 65.9414 427.414 65.9414C428.711 65.9414 430.543 63.418 432.902 58.3672C435.562 52.6406 437.645 47.2383 439.148 42.1562C439.387 41.332 439.945 40.918 440.836 40.918C441.57 40.918 442.133 41.168 442.516 41.6719C442.754 41.9961 442.871 42.3633 442.871 42.7773C442.871 43.0156 442.828 43.2656 442.738 43.5312C439.461 53.8672 436.492 61.25 433.836 65.6758C431.297 69.8984 428.52 72.0117 425.508 72.0117Z" fill="#b3b836"/>
    <path d="M446.371 70.6836C445.57 70.6836 444.789 70.6016 444.02 70.4375C443.254 70.2773 442.621 69.8789 442.117 69.2422C441.613 68.6094 441.363 67.582 441.363 66.1641C441.363 64.4219 441.637 63.1172 442.184 62.2422C442.73 61.375 443.461 60.7969 444.379 60.5156C445.293 60.2383 446.297 60.0977 447.391 60.0977C448.215 60.0977 449.012 60.1797 449.781 60.3398C450.547 60.5039 451.176 60.8945 451.664 61.5156C452.148 62.1328 452.395 63.1523 452.395 64.5703C452.395 68.6445 450.387 70.6836 446.371 70.6836Z" fill="#b3b836"/>
    <path d="M462.445 70.2383C460.352 70.2383 459.066 69.2812 458.594 67.3594C457.352 62.4883 456.734 54.1484 456.734 42.3359C456.734 36.1055 456.887 29.3203 457.199 21.9844C457.508 14.6484 457.84 8.67578 458.195 4.06641C458.285 2.91406 458.645 2.05469 459.281 1.47656C459.914 0.902344 460.703 0.531249 461.648 0.367188C462.594 0.207031 463.555 0.125 464.527 0.125C465.387 0.125 466.219 0.1875 467.031 0.304688C467.844 0.421875 468.508 0.71875 469.023 1.1875C469.539 1.66016 469.801 2.42969 469.801 3.49219C469.801 4.61328 469.711 5.94531 469.535 7.47656C468.203 18.9062 467.199 31.5742 466.523 45.4805L467.539 42.4688C468.395 39.8398 469.437 37.4258 470.664 35.2266C471.887 33.0273 473.32 31.2461 474.961 29.8906C476.598 28.5312 478.496 27.8516 480.652 27.8516C482.453 27.8516 483.988 28.6875 485.258 30.3555C486.527 32.0234 487.16 34.4961 487.16 37.7734C487.16 40.4023 486.969 43.1758 486.586 46.1016C485.789 51.9453 484.312 56.9688 482.156 61.1602C486.41 58.9453 489.758 55.0312 492.211 49.4219C493.184 47.1211 494.043 44.6992 494.781 42.1562C495.016 41.332 495.578 40.918 496.465 40.918C497.199 40.918 497.762 41.168 498.145 41.6719C498.383 41.9961 498.5 42.3633 498.5 42.7773C498.5 43.0742 497.996 44.7578 496.992 47.8281C493.539 58.8438 487.027 65.3516 477.461 67.3594C475.633 68.9258 473.562 69.707 471.262 69.707C469.695 69.707 468.469 69.1992 467.586 68.1797C466.699 67.1602 466.258 65.9727 466.258 64.6133C466.258 63.0195 466.949 62.2227 468.34 62.2227C468.988 62.2227 469.871 62.4297 470.996 62.8438C472.531 61.5742 473.844 59.0625 474.938 55.3125C476.441 50.2656 477.195 44.9062 477.195 39.2344C477.195 38.4062 477.078 37.7305 476.844 37.1992C476.605 36.6641 476.266 36.4023 475.824 36.4023C475.055 36.4023 474.125 37.5664 473.031 39.8984C470.906 44.418 468.957 50.0586 467.188 56.8203C466.594 59.1836 466.227 61.1602 466.078 62.7539C465.988 63.9336 465.805 65.4766 465.523 67.3828C465.242 69.2852 464.219 70.2383 462.445 70.2383Z" fill="#b3b836"/>
    <path d="M511.965 70.2383C508.512 70.2383 505.922 68.9336 504.191 66.3203C502.465 63.707 501.602 60.1133 501.602 55.5352C501.602 53.0547 501.91 50 502.531 46.3672C503.152 42.7344 503.816 39.7383 504.523 37.375C503.047 36.9609 501.676 36.4297 500.402 35.7812C499.727 38.7617 499.047 41.3477 498.367 43.5312C498.102 44.3867 497.539 44.8164 496.684 44.8164C495.945 44.8164 495.383 44.5508 495.004 44.0195C494.766 43.6953 494.648 43.3398 494.648 42.9531C494.648 42.7188 494.691 42.4531 494.777 42.1562C495.578 39.8242 496.242 36.8594 496.773 33.2578C494.734 31.3945 493.715 29.1367 493.715 26.4805V24.707C493.715 23.1133 494.102 22.0742 494.867 21.5859C495.637 21.0977 496.742 20.8555 498.191 20.8555C498.781 20.8555 499.387 20.9062 500.008 21.0078C500.629 21.1133 501.137 21.3398 501.535 21.6953C501.934 22.0508 502.133 22.5977 502.133 23.3359C502.133 25.7852 501.867 28.3242 501.336 30.9531C502.988 32.8711 505.691 34.2305 509.441 35.0273C511.594 35.4687 513.16 36.0898 514.137 36.8867C514.785 37.418 515.109 38.3359 515.109 39.6328C515.109 40.6094 514.887 42.1016 514.445 44.1055C513.059 50.5742 512.363 55.8438 512.363 59.9219C512.363 62.7539 512.879 64.1719 513.914 64.1719C515.27 64.1719 517.219 61.293 519.762 55.5352C521.621 51.2813 523.258 46.8242 524.676 42.1562C524.914 41.332 525.504 40.918 526.445 40.918C527.156 40.918 527.703 41.168 528.086 41.6719C528.32 42.0273 528.441 42.4102 528.441 42.8242C528.441 43.2656 527.57 46.0273 525.828 51.1055C521.367 63.8594 516.746 70.2383 511.965 70.2383Z" fill="#b3b836"/>
</g>
</svg>